<svg width="155" height="221" viewBox="0 0 155 221" fill="none" xmlns="http://www.w3.org/2000/svg">
<path d="M135.6 76C142.779 70.7939 148.125 63.4492 150.874 55.0183C153.622 46.5873 153.632 37.5027 150.901 29.0659C148.17 20.6292 142.839 13.2732 135.672 8.052C128.504 2.83077 119.868 0.0121618 111 0H42.9999C34.1322 0.0121618 25.4959 2.83077 18.3282 8.052C11.1606 13.2732 5.82947 20.6292 3.09863 29.0659C0.367782 37.5027 0.377361 46.5873 3.12599 55.0183C5.87462 63.4492 11.2213 70.7939 18.3999 76C13.0104 79.8815 8.62089 84.9886 5.5933 90.9002C2.56571 96.8117 0.986816 103.358 0.986816 110C0.986816 116.642 2.56571 123.188 5.5933 129.1C8.62089 135.011 13.0104 140.118 18.3999 144C12.5702 148.213 7.92014 153.852 4.89513 160.377C1.87012 166.903 0.571585 174.096 1.12393 181.267C1.67628 188.438 4.061 195.348 8.04961 201.333C12.0382 207.318 17.497 212.179 23.9031 215.449C30.3091 218.719 37.4476 220.29 44.6346 220.01C51.8217 219.73 58.8164 217.609 64.9486 213.85C71.0809 210.092 76.145 204.821 79.656 198.544C83.167 192.266 85.007 185.192 84.9999 178V142.9C89.3593 146.578 94.4224 149.33 99.8802 150.988C105.338 152.645 111.076 153.173 116.745 152.541C122.414 151.908 127.894 150.127 132.852 147.306C137.81 144.486 142.141 140.685 145.582 136.136C149.023 131.587 151.501 126.384 152.865 120.846C154.23 115.307 154.452 109.549 153.518 103.922C152.584 98.2952 150.513 92.9175 147.433 88.1169C144.352 83.3164 140.326 79.1936 135.6 76ZM137 42C136.974 48.8875 134.226 55.4854 129.356 60.3557C124.485 65.2259 117.887 67.9737 111 68H84.9999V16H111C117.887 16.0263 124.485 18.7741 129.356 23.6443C134.226 28.5146 136.974 35.1125 137 42ZM16.9999 42C17.0262 35.1125 19.774 28.5146 24.6442 23.6443C29.5145 18.7741 36.1124 16.0263 42.9999 16H68.9999V68H42.9999C36.1124 67.9737 29.5145 65.2259 24.6442 60.3557C19.774 55.4854 17.0262 48.8875 16.9999 42ZM16.9999 110C17.0262 103.112 19.774 96.5146 24.6442 91.6443C29.5145 86.7741 36.1124 84.0263 42.9999 84H68.9999V136H42.9999C36.1124 135.974 29.5145 133.226 24.6442 128.356C19.774 123.485 17.0262 116.888 16.9999 110ZM42.9999 204C36.1043 204 29.4911 201.261 24.6151 196.385C19.7392 191.509 16.9999 184.896 16.9999 178C16.9999 171.104 19.7392 164.491 24.6151 159.615C29.4911 154.739 36.1043 152 42.9999 152H68.9999V178C68.9735 184.888 66.2258 191.485 61.3556 196.356C56.4853 201.226 49.8874 203.974 42.9999 204ZM111 136C104.104 136 97.491 133.261 92.6151 128.385C87.7392 123.509 84.9999 116.896 84.9999 110C84.9999 103.104 87.7392 96.4912 92.6151 91.6152C97.491 86.7393 104.104 84 111 84C117.896 84 124.509 86.7393 129.385 91.6152C134.261 96.4912 137 103.104 137 110C137 116.896 134.261 123.509 129.385 128.385C124.509 133.261 117.896 136 111 136Z" fill="#505051"/>
</svg>
