<svg width="24" height="24" viewBox="0 0 24 24" fill="none" xmlns="http://www.w3.org/2000/svg">
<g clip-path="url(#clip0_47_25)">
<path d="M24.129 23.412L23.621 22.928C23.3788 22.6072 23.1081 22.309 22.812 22.037L22.807 22.033C22.5084 21.7617 22.198 21.5037 21.876 21.259C21.618 21.0817 21.2634 20.868 20.812 20.618C20.4458 20.4555 20.1539 20.1614 19.994 19.794L19.99 19.784L19.942 19.76C20.154 19.739 20.348 19.7 20.534 19.645L20.511 19.651L21.081 19.494C21.317 19.42 21.59 19.372 21.873 19.361H21.879C22.177 19.349 22.458 19.301 22.726 19.222L22.701 19.228C22.8304 19.196 22.9634 19.1597 23.1 19.119C23.2367 19.0783 23.3537 19.042 23.451 19.01V18.841C23.3544 18.6963 23.2374 18.531 23.1 18.345C22.9727 18.171 22.8238 18.0137 22.657 17.877L22.652 17.873C22.2327 17.5023 21.7984 17.1437 21.349 16.797C20.9278 16.4697 20.4902 16.164 20.038 15.881L19.97 15.841C19.7093 15.6705 19.433 15.5249 19.145 15.406L19.111 15.394C18.8124 15.2727 18.518 15.1397 18.228 14.995C18.1236 14.9438 18.014 14.904 17.901 14.876L17.89 14.874C17.7772 14.8516 17.6752 14.7921 17.6 14.705L17.599 14.704C17.4572 14.5157 17.338 14.3113 17.244 14.095L17.236 14.075C17.1394 13.849 17.0347 13.632 16.922 13.424C16.68 12.956 16.446 12.4803 16.22 11.997C15.994 11.5137 15.777 11.0297 15.569 10.545C15.4244 10.2223 15.2914 9.90001 15.17 9.57801C15.0473 9.24978 14.8929 8.93429 14.709 8.63601L14.722 8.65901C14.3236 7.9758 13.8789 7.3206 13.391 6.69801L13.419 6.73601C12.9727 6.17067 12.485 5.63922 11.96 5.14601L11.952 5.13901C11.4358 4.65463 10.8908 4.20181 10.32 3.78301L10.271 3.74801C9.67371 3.31401 9.02038 2.88668 8.31105 2.46601C8.00953 2.29015 7.68464 2.15783 7.34605 2.07301L7.32005 2.06701L6.20705 1.78901L5.57805 1.74101C5.36871 1.72501 5.15905 1.71701 4.94905 1.71701C4.80743 1.64289 4.67712 1.54895 4.56205 1.43801C4.45082 1.33221 4.33292 1.23368 4.20905 1.14301L4.19905 1.13601C3.54947 0.761171 2.86531 0.449735 2.15605 0.20601L2.07105 0.18001C1.89465 0.0790914 1.69782 0.0191426 1.49512 0.00460215C1.29242 -0.00993835 1.08904 0.0213019 0.900047 0.0960097L0.909047 0.0930097C0.722943 0.165991 0.555216 0.279102 0.417806 0.42429C0.280396 0.569478 0.176682 0.743173 0.114047 0.93301L0.111047 0.94301C0.00493007 1.19784 -0.0295465 1.47682 0.0113413 1.74982C0.0522292 2.02281 0.166927 2.27945 0.343047 2.49201L0.341047 2.48901C0.703714 2.97234 0.981714 3.35234 1.17505 3.62901C1.31971 3.82301 1.46905 4.02468 1.62305 4.23401C1.76405 4.42201 1.88905 4.63701 1.99005 4.86401L1.99805 4.88501C2.05405 5.00401 2.10305 5.14601 2.13905 5.29201L2.14205 5.30801C2.17405 5.44534 2.21438 5.59468 2.26305 5.75601C2.40771 6.12668 2.54471 6.50668 2.67405 6.89601C2.81505 7.32101 2.97105 7.68101 3.15205 8.02401L3.13305 7.98401C3.22971 8.16134 3.32671 8.33468 3.42405 8.50401C3.52138 8.67334 3.62605 8.83868 3.73805 9.00001C3.80156 9.09584 3.88348 9.1781 3.97905 9.24201L3.98205 9.24401C4.03213 9.27993 4.07337 9.32679 4.10265 9.38102C4.13193 9.43525 4.14848 9.49543 4.15105 9.55701C4.03306 9.73227 3.95866 9.93418 3.93405 10.144L3.93305 10.15C3.90167 10.3856 3.85049 10.6181 3.78005 10.845L3.78805 10.815C3.55281 11.5352 3.43432 12.2884 3.43705 13.046C3.43705 13.304 3.45005 13.558 3.47705 13.809L3.47405 13.778C3.53405 14.736 3.82305 15.616 4.28605 16.378L4.27205 16.353C4.46905 16.648 4.68005 16.905 4.91305 17.14C5.04841 17.2923 5.23076 17.3949 5.43114 17.4317C5.63152 17.4685 5.83844 17.4373 6.01905 17.343L6.01405 17.345C6.18733 17.2839 6.33853 17.1727 6.4484 17.0254C6.55828 16.8781 6.62185 16.7015 6.63105 16.518V16.516C6.67905 16.042 6.75105 15.618 6.85005 15.204L6.83705 15.271C6.86239 15.2036 6.87526 15.1321 6.87505 15.06L6.87305 15.015V15.017C6.86505 14.9443 6.90938 14.8757 7.00605 14.811V14.859C7.10271 15.085 7.20338 15.3107 7.30805 15.536C7.41271 15.7613 7.52138 15.987 7.63405 16.213C7.92905 16.662 8.24205 17.054 8.58605 17.415L8.58305 17.412C8.92525 17.7815 9.30271 18.1168 9.71005 18.413L9.73205 18.428C9.94405 18.59 10.13 18.765 10.298 18.956L10.302 18.96C10.46 19.146 10.649 19.299 10.862 19.414L10.872 19.419V19.395H10.92C10.8821 19.3101 10.8194 19.2386 10.74 19.19L10.738 19.189C10.6647 19.1486 10.5942 19.1031 10.527 19.053L10.532 19.056C10.3874 18.9113 10.238 18.75 10.084 18.572C9.93005 18.394 9.78905 18.2247 9.66105 18.064C9.32238 17.596 8.99938 17.107 8.69205 16.597C8.38471 16.087 8.09438 15.5687 7.82105 15.042C7.69171 14.784 7.56671 14.518 7.44605 14.244C7.32538 13.97 7.20838 13.704 7.09505 13.446C7.04374 13.3412 7.01125 13.2281 6.99905 13.112V13.107C6.99635 13.0521 6.97945 12.9988 6.95001 12.9523C6.92056 12.9059 6.87957 12.8679 6.83105 12.842L6.82905 12.841C6.71456 13.0378 6.57764 13.2207 6.42105 13.386L6.42205 13.385C6.26144 13.5542 6.1321 13.7506 6.04005 13.965L6.03505 13.978C5.88536 14.3473 5.78809 14.7357 5.74605 15.132L5.74405 15.151C5.69605 15.5783 5.64771 16.0177 5.59905 16.469L5.55105 16.493L5.52705 16.517C5.40187 16.4919 5.2839 16.4391 5.1818 16.3624C5.07971 16.2858 4.99608 16.1872 4.93705 16.074L4.93505 16.069C4.81371 15.835 4.70505 15.605 4.60905 15.379C4.34709 14.6936 4.20403 13.9685 4.18605 13.235V13.226C4.13411 12.4422 4.23115 11.6557 4.47205 10.908L4.46005 10.952C4.50805 10.7747 4.61271 10.476 4.77405 10.056C4.93538 9.63601 4.96771 9.34568 4.87105 9.18501C4.82335 9.02599 4.73145 8.8838 4.60605 8.77501L4.60505 8.77401C4.48552 8.67049 4.37357 8.55853 4.27005 8.43901L4.26705 8.43501C4.15438 8.27234 4.04571 8.09901 3.94105 7.91501C3.83638 7.73101 3.74371 7.54968 3.66305 7.37101C3.47684 6.93039 3.31852 6.4785 3.18905 6.01801L3.16705 5.92901C3.02476 5.41446 2.8422 4.91191 2.62105 4.42601L2.64705 4.49001C2.54359 4.25256 2.4127 4.02803 2.25705 3.82101L2.26305 3.82901C2.10038 3.61168 1.95505 3.40601 1.82705 3.21201C1.66438 3.00268 1.50305 2.80101 1.34305 2.60701C1.17632 2.40507 1.03338 2.18462 0.917047 1.95001L0.908047 1.93001C0.856882 1.82554 0.81699 1.71593 0.789047 1.60301L0.787047 1.59201C0.769867 1.5352 0.765351 1.47532 0.773817 1.41657C0.782283 1.35783 0.803525 1.30166 0.836047 1.25201L0.835047 1.25401C0.845739 1.19994 0.870978 1.1498 0.908047 1.10901C0.948534 1.07282 0.997867 1.04798 1.05105 1.03701H1.05305C1.13195 0.98584 1.22265 0.955755 1.31648 0.949627C1.41032 0.943499 1.50416 0.961535 1.58905 1.00201L1.58605 1.00101C1.80505 1.06301 1.98205 1.12501 2.15505 1.19601L2.11905 1.18301C2.42505 1.31234 2.70738 1.43734 2.96605 1.55801C3.26405 1.70001 3.51805 1.85001 3.75805 2.01701L3.74005 2.00501C3.86938 2.08568 3.99838 2.17434 4.12705 2.27101C4.25571 2.36768 4.39271 2.46468 4.53805 2.56201H4.87705C5.13505 2.56201 5.40905 2.57434 5.69905 2.59901C5.99205 2.62201 6.26305 2.67701 6.52105 2.76301L6.49705 2.75601C6.97805 2.89901 7.39105 3.06801 7.78305 3.27101L7.74205 3.25201C8.13738 3.45334 8.51238 3.66701 8.86705 3.89301C9.45605 4.26001 9.96505 4.63601 10.444 5.04701L10.427 5.03301C10.927 5.46101 11.381 5.90001 11.807 6.36401L11.817 6.37601C12.233 6.83001 12.63 7.32301 12.993 7.84001L13.024 7.88701C13.358 8.35901 13.695 8.90501 13.998 9.47101L14.04 9.55601C14.1293 9.72953 14.2075 9.90856 14.274 10.092L14.285 10.125C14.3497 10.3103 14.422 10.5003 14.502 10.695C14.6794 11.0983 14.8694 11.5053 15.072 11.916C15.2747 12.3267 15.4647 12.726 15.642 13.114L16.174 14.275C16.361 14.681 16.57 15.031 16.813 15.354L16.802 15.339C17.005 15.556 17.276 15.708 17.58 15.761L17.588 15.762C17.956 15.854 18.266 15.958 18.566 16.081L18.519 16.064C18.662 16.129 18.846 16.198 19.035 16.259L19.075 16.27C19.287 16.335 19.471 16.421 19.64 16.529L19.631 16.524C19.958 16.707 20.235 16.887 20.499 17.083L20.478 17.068C20.752 17.2693 21.026 17.4593 21.3 17.638C21.4294 17.7347 21.6464 17.8757 21.951 18.061C22.2557 18.2463 22.417 18.4197 22.435 18.581C21.8224 18.5598 21.209 18.5889 20.601 18.668L20.657 18.662C20.1493 18.7279 19.6522 18.859 19.178 19.052L19.218 19.038C19.0924 19.0913 18.9626 19.1344 18.83 19.167L18.811 19.171C18.7422 19.1809 18.6786 19.2135 18.6304 19.2637C18.5822 19.3139 18.5521 19.3788 18.545 19.448C18.606 19.524 18.655 19.613 18.688 19.709L18.69 19.715C18.724 19.817 18.765 19.905 18.815 19.987L18.812 19.981C18.931 20.192 19.059 20.374 19.203 20.542L19.199 20.537C19.34 20.711 19.499 20.862 19.675 20.991L19.682 20.996C19.8447 21.1253 20.014 21.2583 20.19 21.395C20.351 21.521 20.533 21.645 20.722 21.757L20.746 21.77C21.03 21.944 21.36 22.11 21.704 22.249L21.75 22.265C22.124 22.415 22.445 22.589 22.743 22.796L22.727 22.785C22.921 22.8977 23.1144 23.0227 23.307 23.16C23.4997 23.2973 23.685 23.4303 23.863 23.559C23.936 23.631 24 23.711 24.054 23.798L24.057 23.803C24.1493 23.9094 24.2774 23.9781 24.417 23.996H24.42V23.948C24.3316 23.8811 24.2671 23.7875 24.236 23.681L24.235 23.677C24.2122 23.5807 24.1744 23.4886 24.123 23.404L24.125 23.408L24.129 23.412ZM5.55305 4.20701C5.42371 4.20701 5.30271 4.21101 5.19005 4.21901C5.08013 4.22608 4.97157 4.24725 4.86705 4.28201L4.87605 4.27901V4.30301H4.92405C4.98871 4.39968 5.07005 4.50834 5.16805 4.62901C5.26605 4.74968 5.35471 4.86668 5.43405 4.98001L5.82105 5.77801L5.86905 5.75401C5.98166 5.67294 6.06903 5.56165 6.12105 5.43301L6.12305 5.42801C6.17505 5.28901 6.20505 5.12701 6.20505 4.95901L6.20405 4.90501V4.90801C6.1587 4.86391 6.12206 4.81167 6.09605 4.75401L6.09505 4.75101L6.01405 4.56901C5.96218 4.48617 5.88801 4.41963 5.80005 4.37701L5.79705 4.37601C5.70719 4.3331 5.62481 4.27604 5.55305 4.20701Z" fill="black"/>
</g>
<defs>
<clipPath id="clip0_47_25">
<rect width="24" height="24" fill="white"/>
</clipPath>
</defs>
</svg>
