<svg width="61" height="61" viewBox="0 0 61 61" fill="none" xmlns="http://www.w3.org/2000/svg">
<path d="M30.5 0.916656C14.1995 0.916656 0.916626 14.1996 0.916626 30.5C0.916626 46.8004 14.1995 60.0833 30.5 60.0833C46.8004 60.0833 60.0833 46.8004 60.0833 30.5C60.0833 14.1996 46.8004 0.916656 30.5 0.916656ZM3.90454 30.5C3.90454 26.6542 4.73288 22.9858 6.21204 19.6725L18.9033 54.4329C10.0283 50.1137 3.90454 41.0317 3.90454 30.5ZM30.5 57.0954C27.8966 57.0954 25.382 56.7108 22.9858 56.0008L30.9733 32.8075L39.1383 55.2021C39.1975 55.3204 39.2566 55.4683 39.3158 55.5571C36.5645 56.5629 33.6062 57.0954 30.5 57.0954ZM34.1683 18.0158C35.7658 17.9271 37.2154 17.7496 37.2154 17.7496C38.6354 17.5721 38.4875 15.4717 37.0379 15.5604C37.0379 15.5604 32.7187 15.8858 29.9379 15.8858C27.3345 15.8858 22.9266 15.5604 22.9266 15.5604C21.5066 15.5012 21.3291 17.6904 22.7787 17.7792C22.7787 17.7792 24.1395 17.9567 25.5595 18.0454L29.7012 29.4054L23.8733 46.8596L14.1995 18.0158C15.797 17.9567 17.2466 17.7792 17.2466 17.7792C18.6666 17.6017 18.5187 15.5012 17.0691 15.59C17.0691 15.59 12.75 15.9154 9.96913 15.9154C9.46621 15.9154 8.87454 15.9154 8.25329 15.8858C13.0458 8.66749 21.2108 3.90457 30.5 3.90457C37.4225 3.90457 43.7237 6.53749 48.457 10.8862C48.3387 10.8862 48.2204 10.8567 48.102 10.8567C45.4987 10.8567 43.635 13.1346 43.635 15.59C43.635 17.7792 44.907 19.6429 46.2383 21.8321C47.2441 23.6071 48.4275 25.885 48.4275 29.1687C48.4275 31.4467 47.54 34.0796 46.4158 37.7775L43.7533 46.6525L34.1683 18.0158ZM53.8412 17.7496C57.164 23.8308 57.9814 30.9691 56.1193 37.6441C54.2571 44.319 49.8626 50.0033 43.8716 53.4862L52.007 29.9971C53.5158 26.2104 54.0187 23.1633 54.0187 20.4712C54.0187 19.495 53.9595 18.5779 53.8412 17.7496Z" fill="#505051"/>
</svg>
