<svg width="156" height="156" viewBox="0 0 156 156" fill="none" xmlns="http://www.w3.org/2000/svg">
<path d="M75.922 100.036C72.9397 104.724 70.0784 109.309 63.6669 113.764C60.2373 116.168 52.3435 120.865 41.1231 120.865C19.716 120.865 2.4375 105.301 2.4375 77.9393C2.4375 54.0256 18.6911 35.135 41.5795 35.135C50.8523 35.135 59.0911 38.3406 65.1583 43.1495C70.7689 47.6132 73.3965 52.0781 75.6893 56.0853L59.6688 64.0904C58.5225 61.4621 57.1429 58.7129 53.6015 55.7401C49.7064 52.646 45.8198 51.7329 42.4926 51.7329C29.4456 51.7329 22.577 63.867 22.577 77.3708C22.577 95.1152 31.6263 103.922 42.4926 103.922C53.0235 103.922 57.2639 96.5969 60.0042 91.9096L75.922 100.036V100.036ZM132.044 37.6514H153.562L125.52 118.461H104.924L77.2267 37.6514H98.7453L115.455 95.1155L132.044 37.6514Z" fill="black"/>
</svg>
