<svg width="256" height="255" viewBox="0 0 256 255" fill="none" xmlns="http://www.w3.org/2000/svg">
<path d="M191.749 184.994V69.2237L115.249 127.109M3.30355 92.1737C1.45304 90.1951 0.402531 87.6002 0.355424 84.8915C0.308316 82.1828 1.26796 79.553 3.04855 77.5112L18.3486 63.3587C20.8986 61.0637 27.146 60.0437 31.736 63.3587L75.3411 96.6362L176.449 4.19872C180.529 0.118722 187.541 -1.53878 195.574 2.66872L246.574 27.0212C251.164 29.6987 255.499 33.9062 255.499 41.6837V213.809C255.499 218.909 251.801 224.391 247.849 226.559L191.749 253.334C187.669 254.991 180.019 253.461 177.341 250.784L75.0861 157.709L31.736 190.859C26.891 194.174 20.8986 193.281 18.3486 190.859L3.04855 176.834C-1.03145 172.626 -0.52145 165.741 3.68605 161.534L41.936 127.109" fill="#505051"/>
</svg>
